<?xml version="1.0" standalone="no"?>
<!DOCTYPE svg PUBLIC "-//W3C//DTD SVG 20010904//EN"
 "http://www.w3.org/TR/2001/REC-SVG-20010904/DTD/svg10.dtd">
<svg version="1.0" xmlns="http://www.w3.org/2000/svg"
 width="800.000000pt" height="800.000000pt" viewBox="0 0 800.000000 800.000000"
 preserveAspectRatio="xMidYMid meet">
<metadata>
Created by potrace 1.11, written by Peter Selinger 2001-2013
</metadata>
<g transform="translate(0.000000,800.000000) scale(0.100000,-0.100000)"
fill="#000000" stroke="none">
<path d="M3760 6467 c-715 -1191 -1297 -2148 -1708 -2807 -471 -755 -519 -820
-705 -957 -240 -175 -471 -379 -732 -644 -283 -288 -452 -503 -546 -694 -100
-203 -89 -322 35 -388 63 -33 166 -31 227 5 166 97 314 276 705 848 247 363
313 454 413 579 42 51 81 100 86 109 25 37 265 237 339 281 489 295 1126 536
1876 709 185 43 577 126 646 137 l41 6 53 -163 c410 -1276 1066 -2141 1855
-2447 440 -171 903 -141 1243 79 213 138 329 317 389 600 27 130 25 399 -5
548 -103 512 -420 956 -900 1259 -308 194 -702 336 -1135 407 -251 42 -464 57
-783 58 l-290 0 -77 226 c-176 520 -378 1297 -518 1990 -52 257 -139 768 -139
814 0 15 -3 29 -7 31 -5 3 -168 -261 -363 -586z m79 -434 c63 -350 310 -1367
451 -1862 33 -118 59 -218 57 -224 -1 -5 -86 -26 -187 -47 -536 -109 -1112
-292 -1595 -505 -254 -112 -596 -294 -770 -410 l-30 -20 25 40 c94 156 900
1392 1433 2200 204 308 420 635 480 728 61 92 113 167 117 167 4 0 12 -30 19
-67z m1891 -2328 c663 -69 1176 -271 1518 -599 120 -116 186 -195 252 -307
222 -368 219 -798 -5 -1114 -103 -146 -240 -223 -434 -245 -204 -23 -446 39
-675 174 -409 241 -797 718 -1124 1383 -111 226 -302 678 -302 715 0 21 546
16 770 -7z m-4486 -1337 c-171 -292 -511 -780 -674 -965 -142 -164 -277 -234
-255 -134 11 49 122 227 247 392 157 209 254 323 400 470 156 158 313 290 282
237z"/>
</g>
</svg>
